<?xml version="1.0" encoding="UTF-8" standalone="no"?>
<svg
   xmlns:dc="http://purl.org/dc/elements/1.1/"
   xmlns:cc="http://creativecommons.org/ns#"
   xmlns:rdf="http://www.w3.org/1999/02/22-rdf-syntax-ns#"
   xmlns:svg="http://www.w3.org/2000/svg"
   xmlns="http://www.w3.org/2000/svg"
   viewBox="0 0 816 1056"
   height="1056"
   width="816"
   xml:space="preserve"
   id="svg2"
   version="1.1"><metadata
     id="metadata8"><rdf:RDF><cc:Work
         rdf:about=""><dc:format>image/svg+xml</dc:format><dc:type
           rdf:resource="http://purl.org/dc/dcmitype/StillImage" /></cc:Work></rdf:RDF></metadata><defs
     id="defs6" /><g
     transform="matrix(1.3333333,0,0,-1.3333333,0,1056)"
     id="g10"><text
       id="text14"
       style="font-variant:normal;font-weight:normal;font-size:24.78709984px;font-family:CMBX12;-inkscape-font-specification:CMBX12;writing-mode:lr-tb;fill:#000000;fill-opacity:1;fill-rule:nonzero;stroke:none"
       transform="matrix(1,0,0,-1,212.453,738.787)"><tspan
         id="tspan12"
         y="0"
         x="0 21.373917 36.865852 48.255527 63.747463 87.758728 104.82217 116.21184 123.95781 139.44975 153.00581 163.85017 179.3421">DhruvTripathi</tspan></text>
<text
       id="text18"
       style="font-variant:normal;font-weight:normal;font-size:9.96259975px;font-family:CMR10;-inkscape-font-specification:CMR10;writing-mode:lr-tb;fill:#000000;fill-opacity:1;fill-rule:nonzero;stroke:none"
       transform="matrix(1,0,0,-1,39.526,724.503)"><tspan
         id="tspan16"
         y="0"
         x="0 4.9812999 9.9625998 14.9439 18.264435 23.245735 28.227036 33.208336 36.52887 41.51017 46.49147 51.472771">469-793-0725</tspan></text>
<text
       id="text22"
       style="font-variant:normal;font-weight:normal;font-size:9.96259975px;font-family:CMSY10;-inkscape-font-specification:CMSY10;writing-mode:lr-tb;fill:#000000;fill-opacity:1;fill-rule:nonzero;stroke:none"
       transform="matrix(1,0,0,-1,99.302,724.503)"><tspan
         id="tspan20"
         y="0"
         x="0">|</tspan></text>
<text
       id="text26"
       style="font-variant:normal;font-weight:normal;font-size:9.96259975px;font-family:CMR10;-inkscape-font-specification:CMR10;writing-mode:lr-tb;fill:#000000;fill-opacity:1;fill-rule:nonzero;stroke:none"
       transform="matrix(1,0,0,-1,105.391,724.503)"><tspan
         id="tspan24"
         y="0"
         x="0 5.5352206 11.070441 14.972792 20.508013 25.766272 28.533882 32.408337 36.310688 41.291988 46.273289 54.022198 59.003498 67.305336 72.286636 75.054245 77.821854 80.589462 85.016846 89.998146">dhruv.tr03@gmail.com</tspan></text>
<g
       transform="translate(105.391,721.171)"
       id="g28"><path
         id="path30"
         style="fill:none;stroke:#000000;stroke-width:0.398;stroke-linecap:butt;stroke-linejoin:miter;stroke-miterlimit:10;stroke-dasharray:none;stroke-opacity:1"
         d="M 0,0 H 98.298" /></g><text
       id="text34"
       style="font-variant:normal;font-weight:normal;font-size:9.96259975px;font-family:CMSY10;-inkscape-font-specification:CMSY10;writing-mode:lr-tb;fill:#000000;fill-opacity:1;fill-rule:nonzero;stroke:none"
       transform="matrix(1,0,0,-1,207.01,724.503)"><tspan
         id="tspan32"
         y="0"
         x="0">|</tspan></text>
<text
       id="text38"
       style="font-variant:normal;font-weight:normal;font-size:9.96259975px;font-family:CMR10;-inkscape-font-specification:CMR10;writing-mode:lr-tb;fill:#000000;fill-opacity:1;fill-rule:nonzero;stroke:none"
       transform="matrix(1,0,0,-1,213.098,724.503)"><tspan
         id="tspan36"
         y="0"
         x="0 5.2562675 9.130723 13.005178 18.5404 22.469648 25.237259 30.218559 35.19986 42.394848 49.589836 56.784828 59.552437 62.320049 65.087662 70.622879 75.602188 80.029564 85.564789 88.332397 93.867615 96.635231 101.06261 106.04391 114.34574 119.32704 122.09465 127.62988 132.61118 138.14639 143.68161 147.58397 153.11919 158.37744 162.25191 166.15425 168.92186 174.45708 179.43839 183.31284 188.84805 191.61566 196.59697">https://www.linkedin.com/in/dhruvtripathi1/</tspan></text>
<g
       transform="translate(213.098,720.617)"
       id="g40"><path
         id="path42"
         style="fill:none;stroke:#000000;stroke-width:0.398;stroke-linecap:butt;stroke-linejoin:miter;stroke-miterlimit:10;stroke-dasharray:none;stroke-opacity:1"
         d="M 0,0 H 201.578" /></g><text
       id="text46"
       style="font-variant:normal;font-weight:normal;font-size:9.96259975px;font-family:CMSY10;-inkscape-font-specification:CMSY10;writing-mode:lr-tb;fill:#000000;fill-opacity:1;fill-rule:nonzero;stroke:none"
       transform="matrix(1,0,0,-1,417.997,724.503)"><tspan
         id="tspan44"
         y="0"
         x="0">|</tspan></text>
<text
       id="text50"
       style="font-variant:normal;font-weight:normal;font-size:9.96259975px;font-family:CMR10;-inkscape-font-specification:CMR10;writing-mode:lr-tb;fill:#000000;fill-opacity:1;fill-rule:nonzero;stroke:none"
       transform="matrix(1,0,0,-1,424.085,724.503)"><tspan
         id="tspan48"
         y="0"
         x="0 5.2562675 9.130723 13.005178 18.5404 22.469648 25.237259 30.218559 35.19986 40.18116 42.948769 46.823223 52.079491 57.614712 63.149933 65.917542 70.344925 75.326225 83.628059 88.60936 94.144577 101.33957 104.10718 107.15175 111.02621 118.22119 123.48145 129.01666 133.44405 138.42534 143.40665">https://github.com/SwiftCode123</tspan></text>
<g
       transform="translate(424.085,720.617)"
       id="g52"><path
         id="path54"
         style="fill:none;stroke:#000000;stroke-width:0.398;stroke-linecap:butt;stroke-linejoin:miter;stroke-miterlimit:10;stroke-dasharray:none;stroke-opacity:1"
         d="M 0,0 H 148.388" /></g><text
       id="text58"
       style="font-variant:normal;font-weight:normal;font-size:11.9552002px;font-family:CMCSC10;-inkscape-font-specification:CMCSC10;writing-mode:lr-tb;fill:#000000;fill-opacity:1;fill-rule:nonzero;stroke:none"
       transform="matrix(1,0,0,-1,36,696.915)"><tspan
         id="tspan56"
         y="0"
         x="0 9.3979826 16.066593 23.133312 30.465437 37.797562 41.410423 48.477142 55.809265 66.464935 73.77076 81.369484 84.982346 91.11895 97.255554">TechnicalSkills</tspan></text>
<g
       transform="translate(36,692.532)"
       id="g60"><path
         id="path62"
         style="fill:none;stroke:#000000;stroke-width:0.398;stroke-linecap:butt;stroke-linejoin:miter;stroke-miterlimit:10;stroke-dasharray:none;stroke-opacity:1"
         d="M 0,0 H 540" /></g><text
       id="text66"
       style="font-variant:normal;font-weight:normal;font-size:9.96259975px;font-family:CMBX10;-inkscape-font-specification:CMBX10;writing-mode:lr-tb;fill:#000000;fill-opacity:1;fill-rule:nonzero;stroke:none"
       transform="matrix(1,0,0,-1,46.8,679.039)"><tspan
         id="tspan64"
         y="0"
         x="0 6.8911304 12.460224 18.825329 24.553823 30.918928 36.488022 42.216518 47.467804">Languages</tspan></text>
<text
       id="text70"
       style="font-variant:normal;font-weight:normal;font-size:9.96259975px;font-family:CMR10;-inkscape-font-specification:CMR10;writing-mode:lr-tb;fill:#000000;fill-opacity:1;fill-rule:nonzero;stroke:none"
       transform="matrix(1,0,0,-1,98.786,679.039)"><tspan
         id="tspan68"
         y="0"
         x="0 7.1910048 12.310785 17.023094 21.72345 26.70475 32.789906 39.57045 44.828712 48.703167 54.238388 59.219688 64.754906 70.850029 78.045013 83.026314 90.221306 97.970215 105.71912 111.80428 117.3395 125.08841 134.63258 138.50703 145.00864 149.98993 153.91917 157.79364 162.77493 166.67729 171.10466 175.03392 178.90837 185.00349 190.12328 194.82562 199.52597 204.50728 210.0425 214.46986 218.37222 221.13983 226.67505 230.54951 236.64462 244.11658 251.31157 260.44427 266.6709 271.65222 278.8472 284.38242">:Java,Python,C/C++,SQL(Postgres),JavaScript,HTML/CSS</tspan></text>
<text
       id="text74"
       style="font-variant:normal;font-weight:normal;font-size:9.96259975px;font-family:CMBX10;-inkscape-font-specification:CMBX10;writing-mode:lr-tb;fill:#000000;fill-opacity:1;fill-rule:nonzero;stroke:none"
       transform="matrix(1,0,0,-1,46.8,667.084)"><tspan
         id="tspan72"
         y="0"
         x="0 6.2525277 10.970815 16.539909 26.087069 31.338354 39.294487 45.022984 49.741268 55.787571">Frameworks</tspan></text>
<text
       id="text78"
       style="font-variant:normal;font-weight:normal;font-size:9.96259975px;font-family:CMR10;-inkscape-font-specification:CMR10;writing-mode:lr-tb;fill:#000000;fill-opacity:1;fill-rule:nonzero;stroke:none"
       transform="matrix(1,0,0,-1,107.109,667.084)"><tspan
         id="tspan76"
         y="0"
         x="0 7.1910048 14.524474 18.951855 23.943117 28.370497 32.244949 35.012562 38.047169 41.986382 48.071537 55.543488 60.803741 66.338959 70.766342 73.533951 76.578522 80.507774 86.592926 96.005592 100.98689 104.88924 110.42446 117.19505 121.0974 125.52477 129.46399 133.39323 139.47839 146.95035 151.37772 156.63599 160.51044 163.27805 166.32262">:React.js,Node.js,WordPress,Next.js</tspan></text>
<text
       id="text82"
       style="font-variant:normal;font-weight:normal;font-size:9.96259975px;font-family:CMBX10;-inkscape-font-specification:CMBX10;writing-mode:lr-tb;fill:#000000;fill-opacity:1;fill-rule:nonzero;stroke:none"
       transform="matrix(1,0,0,-1,46.8,655.128)"><tspan
         id="tspan80"
         y="0"
         x="0 8.7860165 14.037303 19.764803 25.016088 28.198143 33.92664 40.610546 45.861832 54.395798 61.41943 67.456764 73.185257 76.377274">DeveloperTools</tspan></text>
<text
       id="text86"
       style="font-variant:normal;font-weight:normal;font-size:9.96259975px;font-family:CMR10;-inkscape-font-specification:CMR10;writing-mode:lr-tb;fill:#000000;fill-opacity:1;fill-rule:nonzero;stroke:none"
       transform="matrix(1,0,0,-1,127.692,655.128)"><tspan
         id="tspan84"
         y="0"
         x="0 7.1910048 15.008657 17.776268 21.650723 27.74584 35.35627 40.60656 44.76495 49.744259 54.171638 58.073986 64.159142 71.631096 80.49382 87.688812 92.939102 98.474327 102.9017 108.99682 116.46877 119.23638 123.16563 128.70085 133.68216 139.7673 145.30254 149.17699 154.7122 160.24742 163.01503 167.99634 174.0815 180.86203 186.1203 193.31529 198.85051 203.8318 207.73416 216.036 222.12115 225.71864 230.98488 234.85933 239.28671 242.05432 244.82193 247.58954 252.70932 258.79446 265.57501 270.00241 272.77002 275.53763 281.07285 285.00211 289.42947 295.51462 302.98657 312.11929 321.53195 326.51324 330.41562 334.84299 340.92813 348.67706 353.65836 356.42596 359.19357 365.27872 375.51828 378.28589 382.18826 386.61563 390.54489 396.08011 401.0614 404.96375">:Git,Docker,VSCode,VisualStudio,PyCharm,IntelliJ,Eclipse,VMWare,Kali,Wireshark</tspan></text>
<text
       id="text90"
       style="font-variant:normal;font-weight:normal;font-size:9.96259975px;font-family:CMBX10;-inkscape-font-specification:CMBX10;writing-mode:lr-tb;fill:#000000;fill-opacity:1;fill-rule:nonzero;stroke:none"
       transform="matrix(1,0,0,-1,46.8,643.173)"><tspan
         id="tspan88"
         y="0"
         x="0 6.8911304 10.073185 16.43829 21.156578 26.72567 31.443958 34.626011 39.8773">Libraries</tspan></text>
<text
       id="text94"
       style="font-variant:normal;font-weight:normal;font-size:9.96259975px;font-family:CMR10;-inkscape-font-specification:CMR10;writing-mode:lr-tb;fill:#000000;fill-opacity:1;fill-rule:nonzero;stroke:none"
       transform="matrix(1,0,0,-1,91.197,643.173)"><tspan
         id="tspan92"
         y="0"
         x="0 7.1910048 13.97155 19.229811 25.597904 30.579205 34.481556 38.629982 44.165203 50.260323 56.61845 61.04583 66.581055 70.5103 75.4916 79.393951 84.929169 89.631523">:PyTorch,Tensorfow</tspan></text>
<text
       id="text98"
       style="font-variant:normal;font-weight:normal;font-size:11.9552002px;font-family:CMCSC10;-inkscape-font-specification:CMCSC10;writing-mode:lr-tb;fill:#000000;fill-opacity:1;fill-rule:nonzero;stroke:none"
       transform="matrix(1,0,0,-1,36,616.881)"><tspan
         id="tspan96"
         y="0"
         x="0 8.8671722 16.331999 23.664124 30.730841 37.261967 44.328686 47.941547 55.540272">Education</tspan></text>
<g
       transform="translate(36,612.497)"
       id="g100"><path
         id="path102"
         style="fill:none;stroke:#000000;stroke-width:0.398;stroke-linecap:butt;stroke-linejoin:miter;stroke-miterlimit:10;stroke-dasharray:none;stroke-opacity:1"
         d="M 0,0 H 540" /></g><text
       id="text106"
       style="font-variant:normal;font-weight:normal;font-size:10.90909958px;font-family:CMBX10;-inkscape-font-specification:CMBX10;writing-mode:lr-tb;fill:#000000;fill-opacity:1;fill-rule:nonzero;stroke:none"
       transform="matrix(1,0,0,-1,46.8,598.984)"><tspan
         id="tspan104"
         y="0"
         x="0 9.6512804 16.621105 20.105471 26.377113 32.1273 37.29385 42.242218 45.726585 50.256042 61.065868 67.3386 75.350243 83.030251 88.780441 95.401169 101.49936 110.62591 116.7241 125.79174 135.41248 141.51067 144.99503 148.4794 154.57759">UniversityofTexasatDallas</tspan></text>
<text
       id="text110"
       style="font-variant:normal;font-weight:normal;font-size:10.90909958px;font-family:CMR10;-inkscape-font-specification:CMR10;writing-mode:lr-tb;fill:#000000;fill-opacity:1;fill-rule:nonzero;stroke:none"
       transform="matrix(1,0,0,-1,494.6,598.984)"><tspan
         id="tspan108"
         y="0"
         x="0 8.0301886 11.060737 15.603286 21.664381 27.118931 31.392027 37.453121 41.755672 47.21022 53.271317 59.934597 67.813148">Richardson,TX</tspan></text>
<text
       id="text114"
       style="font-variant:normal;font-weight:normal;font-size:9.96259975px;font-family:CMTI10;-inkscape-font-specification:CMTI10;writing-mode:lr-tb;fill:#000000;fill-opacity:1;fill-rule:nonzero;stroke:none"
       transform="matrix(1,0,0,-1,46.8,585.435)"><tspan
         id="tspan112"
         y="0"
         x="0 7.0126743 12.104559 16.687355 21.77924 26.362036 28.908476 34.000362 41.7682 46.860085 53.472263 59.073238 63.656033 66.711563 71.294357 76.895332 80.970032 89.119446 92.174973 101.34255 108.47179 113.56367 121.71109 126.80298 132.1499 135.45947 140.04228 147.81012 153.41109 157.99388 161.03944 165.62225 171.23318 175.29793 382.28091 389.03854 393.66019 398.24399 402.31866 406.90149 410.21106 414.27579 422.9343 430.64136 434.3345 439.42636 444.51825 449.86517 454.95706 458.26666 461.32217 466.41406 472.01505 479.65335 488.58682 493.67871 502.08316 507.17505 512.26691 517.35883">BachelorofScienceinComputerScienceExpectedGraduation:May2027</tspan></text>
<text
       id="text118"
       style="font-variant:normal;font-weight:normal;font-size:11.9552002px;font-family:CMCSC10;-inkscape-font-specification:CMCSC10;writing-mode:lr-tb;fill:#000000;fill-opacity:1;fill-rule:nonzero;stroke:none"
       transform="matrix(1,0,0,-1,36,565.24)"><tspan
         id="tspan116"
         y="0"
         x="0 8.8671722 16.199297 22.867907 29.536516 36.735939 40.348801 47.01741 54.349533 61.416252">Experience</tspan></text>
<g
       transform="translate(36,560.856)"
       id="g120"><path
         id="path122"
         style="fill:none;stroke:#000000;stroke-width:0.398;stroke-linecap:butt;stroke-linejoin:miter;stroke-miterlimit:10;stroke-dasharray:none;stroke-opacity:1"
         d="M 0,0 H 540" /></g><text
       id="text126"
       style="font-variant:normal;font-weight:normal;font-size:10.90909958px;font-family:CMBX10;-inkscape-font-specification:CMBX10;writing-mode:lr-tb;fill:#000000;fill-opacity:1;fill-rule:nonzero;stroke:none"
       transform="matrix(1,0,0,-1,46.8,547.344)"><tspan
         id="tspan124"
         y="0"
         x="0 11.909465 18.007652 23.234201 30.204025 33.688393 40.658215 50.586586 58.132412 63.882599 69.980789 75.147339 82.117157 85.601524 92.57135 103.03318 111.27609 118.24592 124.51865 128.00302 134.97284 140.72302 146.47321">MachineLearningEngineer</tspan></text>
<text
       id="text130"
       style="font-variant:normal;font-weight:normal;font-size:10.90909958px;font-family:CMSY10;-inkscape-font-specification:CMSY10;writing-mode:lr-tb;fill:#000000;fill-opacity:1;fill-rule:nonzero;stroke:none"
       transform="matrix(1,0,0,-1,202.617,547.344)"><tspan
         id="tspan128"
         y="0"
         x="0">|</tspan></text>
<text
       id="text134"
       style="font-variant:normal;font-weight:normal;font-size:10.90909958px;font-family:CMBX10;-inkscape-font-specification:CMBX10;writing-mode:lr-tb;fill:#000000;fill-opacity:1;fill-rule:nonzero;stroke:none"
       transform="matrix(1,0,0,-1,209.829,547.344)"><tspan
         id="tspan132"
         y="0"
         x="0 7.6800065 13.430193 20.050926 26.149113 35.286575 47.209129 53.481861 63.936054 70.034241 77.004066 80.488434 89.614983 99.266266 106.23609 109.72045 115.9921 121.74229 126.90884 131.85721 135.34157 139.87103">TexasWoman’sUniversity</tspan></text>
<text
       id="text138"
       style="font-variant:normal;font-weight:normal;font-size:10.90909958px;font-family:CMR10;-inkscape-font-specification:CMR10;writing-mode:lr-tb;fill:#000000;fill-opacity:1;fill-rule:nonzero;stroke:none"
       transform="matrix(1,0,0,-1,472.782,547.344)"><tspan
         id="tspan136"
         y="0"
         x="0 8.1818247 14.242921 19.697472 27.571659 33.026211 38.480759 43.93531 53.033497 62.120781 69.545509 73.818604 78.666611 82.969162 87.817162 93.572807">Aug.2024–Present</tspan></text>
<text
       id="text142"
       style="font-variant:normal;font-weight:normal;font-size:9.96259975px;font-family:CMTI10;-inkscape-font-specification:CMTI10;writing-mode:lr-tb;fill:#000000;fill-opacity:1;fill-rule:nonzero;stroke:none"
       transform="matrix(1,0,0,-1,46.8,533.794)"><tspan
         id="tspan140"
         y="0"
         x="0 7.4052005 13.006174 16.061705 20.644499 25.227295 29.428524 33.502232 36.557762 39.867336 48.271786 53.36367 59.975849 66.347931 70.930725 75.552376 80.644257 88.274612 93.366501 100.24268 107.76445 112.85633 115.91087 118.45731 123.54919 452.68262 459.70026 462.7558 467.33859 472.43048 477.52237 481.21548 486.30737 490.3811 495.47296 501.07394 507.68613 514.81537">UniversityofTexasatDallasRichardson,TX</tspan></text>
<text
       id="text146"
       style="font-variant:normal;font-weight:normal;font-size:5.9776001px;font-family:CMSY6;-inkscape-font-specification:CMSY6;writing-mode:lr-tb;fill:#000000;fill-opacity:1;fill-rule:nonzero;stroke:none"
       transform="matrix(1,0,0,-1,61.526,520.803)"><tspan
         id="tspan144"
         y="0"
         x="0">•</tspan></text>
<text
       id="text152"
       style="font-variant:normal;font-weight:normal;font-size:9.96259975px;font-family:CMR10;-inkscape-font-specification:CMR10;writing-mode:lr-tb;fill:#000000;fill-opacity:1;fill-rule:nonzero;stroke:none"
       transform="matrix(1,0,0,-1,70.8,519.501)"><tspan
         id="tspan148"
         y="0"
         x="0 7.3334699 11.760849 17.29607 22.831291 27.258671 31.686049 40.538815 46.074036 51.055336 54.957687 60.492908 67.408943 72.390244 76.292595 84.047485 88.474861 93.456161 97.385414 101.25986 108.50666 113.76293 122.3487 127.33 132.31129 143.93068 149.18695 157.77272 163.30794 167.73532 172.71461 177.142 179.90961 184.89091 190.42613 193.19374 198.72896 207.02782 212.00911 220.86188 228.33383 231.93132 235.25186 240.78708 244.68942 247.45703 252.4463 256.87369 265.72644 270.70776 276.24298 281.7782 284.54581 287.31342 291.74078 296.72211 300.59656 303.36417 308.34546 317.19821 321.07269 326.60791 331.5892 338.78119 342.65567 346.55801 351.53931 355.69769 360.95596 368.20276 373.18405 377.0864 388.70578 392.63504 399.83002 402.59763 408.13284 416.44165 419.20926 428.06204 433.87622 438.30359 443.83881 446.60641 451.58771 455.46219 459.36453 462.13214 469.87708 474.30444 478.73181 482.63419 487.06155 492.59677 496.49911 501.48041">Reducedhardwarecostsby50%bydevelopinganAI-drivenapplicationthattracksarmswinginpediatriccerebral</tspan><tspan
         id="tspan150"
         y="11.955"
         x="0 5.5352206 10.516521 13.284131 17.213381 25.789186 31.324408 36.305706 40.180161 42.947773 47.375153 52.63142 56.505875 60.435123 66.530243 70.957619 73.725235 76.492844 84.794678 87.562286 93.097511 98.078812 101.95326 104.72087 110.2561 118.55494 122.4294 127.96461 135.70953 141.24477 145.67213 150.09952 158.96225 162.00682 166.98811 174.20802 178.63539 183.89366 187.76811 192.1955 196.09784 201.63306 206.61436 212.69952 221.00136 225.98265 229.8571 232.62471 237.60602 246.46875 250.39799 254.82538 260.3606 264.28986 269.27115 273.17349">palsypatients,eliminatingtheneedforexternalmotionsensors</tspan></text>
<text
       id="text156"
       style="font-variant:normal;font-weight:normal;font-size:5.9776001px;font-family:CMSY6;-inkscape-font-specification:CMSY6;writing-mode:lr-tb;fill:#000000;fill-opacity:1;fill-rule:nonzero;stroke:none"
       transform="matrix(1,0,0,-1,61.526,494.896)"><tspan
         id="tspan154"
         y="0"
         x="0">•</tspan></text>
<text
       id="text162"
       style="font-variant:normal;font-weight:normal;font-size:9.96259975px;font-family:CMR10;-inkscape-font-specification:CMR10;writing-mode:lr-tb;fill:#000000;fill-opacity:1;fill-rule:nonzero;stroke:none"
       transform="matrix(1,0,0,-1,70.8,493.831)"><tspan
         id="tspan158"
         y="0"
         x="0 7.3334699 11.760849 15.690099 20.117477 25.098778 29.001129 33.149555 38.684776 43.112156 51.974884 60.276718 65.258018 69.406448 74.941666 77.709274 83.244499 90.989426 93.757034 98.18441 103.16571 107.06806 112.60328 115.3709 120.90611 129.20496 137.50679 142.76704 148.30226 152.72964 155.49725 162.75401 167.73532 173.27054 182.12331 184.89091 193.19275 198.17404 203.15535 210.90027 216.43549 220.33784 225.5981 230.02548 234.45285 238.38211 242.31136 245.07896 250.61418 258.91302 263.89432 266.66193 271.64325 276.62454 280.52689 283.29449 287.16895 292.70416 301.00601 308.26276 315.45776 318.22537 322.09982 330.95258 337.73312 342.99139 349.3595 354.34079 358.24313 362.39157 371.24432 376.22565 381.76086 390.61362 399.74634 404.18369 409.70892 412.47653 417.45786 424.2384 427.00601 432.82019 440.57507 444.43954 452.74835 457.17575 462.71097 466.64023 472.17545 476.07779">ResearchedmachinelearningmodelsandimageprocessingalgorithmswithPyTorchandMediaPipetoensure</tspan><tspan
         id="tspan160"
         y="11.955"
         x="0 4.9812999 9.408679 13.836059 19.371279 23.27363 28.25493 32.682308 41.258114 44.025726 52.888454 56.762909 60.66526 65.646561 69.794991 75.053246 77.820854 83.356079 91.654922 99.956757 104.6591 109.64838 114.07575 122.37759 126.80497 132.06123 139.25323 146.44823 149.21584 153.09029 158.62552 163.60681 169.14203 176.33403 183.26004 187.68741 192.66872 196.57106 201.55237 207.08759 209.85519 217.60011 221.47458 225.90196 230.05038 235.5856 241.12082 246.10213 248.86974 253.85103 258.83234 263.2637">accuracyintrackingmovementwithoutwearabletechnology.</tspan></text>
<text
       id="text166"
       style="font-variant:normal;font-weight:normal;font-size:5.9776001px;font-family:CMSY6;-inkscape-font-specification:CMSY6;writing-mode:lr-tb;fill:#000000;fill-opacity:1;fill-rule:nonzero;stroke:none"
       transform="matrix(1,0,0,-1,61.526,469.226)"><tspan
         id="tspan164"
         y="0"
         x="0">•</tspan></text>
<text
       id="text172"
       style="font-variant:normal;font-weight:normal;font-size:9.96259975px;font-family:CMR10;-inkscape-font-specification:CMR10;writing-mode:lr-tb;fill:#000000;fill-opacity:1;fill-rule:nonzero;stroke:none"
       transform="matrix(1,0,0,-1,70.8,468.16)"><tspan
         id="tspan168"
         y="0"
         x="0 3.5974948 11.899329 17.434549 21.336901 26.039248 31.018555 35.445934 44.308662 49.843884 54.825184 58.699638 61.467251 65.89463 71.150894 78.342896 82.770279 88.305496 93.286797 98.268097 103.2494 107.67678 115.97861 120.40599 125.67222 132.86423 138.12048 146.69629 151.6776 156.65889 168.28824 172.16269 177.69792 181.60027 186.58156 192.11679 197.09808 205.95085 214.24969 218.17896 222.60632 227.58763 230.35524 235.33653 240.87177 243.63937 251.39426 256.37555 261.91077 270.76355 275.19092 280.17221 284.10147 287.97592 291.29645 295.72385 304.02567 308.45306 311.22067 315.64804 320.90433 328.10626 332.03552 337.01682 340.0614 343.65689 350.57294 355.55423 359.45657 367.20151 372.1828 376.08517 380.24356 385.77878 388.54639 392.42084 396.84821 401.2756 405.15005 410.68527 414.58762 422.33255 427.86777 431.79703 434.56464 440.09985 448.39868 454.91025 459.89154 463.8208 467.69525 472.67654 476.57892 481.00629 486.5415 494.29041 500.51703">Improvedpatientengagementby30%throughascalableandcost-efcientsoftwarearchitectureusingPostgreSQL,</tspan><tspan
         id="tspan170"
         y="11.955"
         x="0 7.6104302 12.870683 17.01911 21.998417 26.425797 30.328146 36.423267 41.404564 46.929825 55.792553 62.158653 72.398216">Docker,andAWS</tspan></text>
<text
       id="text176"
       style="font-variant:normal;font-weight:normal;font-size:10.90909958px;font-family:CMBX10;-inkscape-font-specification:CMBX10;writing-mode:lr-tb;fill:#000000;fill-opacity:1;fill-rule:nonzero;stroke:none"
       transform="matrix(1,0,0,-1,46.8,438.522)"><tspan
         id="tspan174"
         y="0"
         x="0 6.9698238 13.242557 17.076014 21.605473 30.31748 36.415668 41.582218 51.51059 61.131325 66.881508 73.153152 78.903336 82.387703 88.660439 95.979355 101.72954">SoftwareDeveloper</tspan></text>
<text
       id="text180"
       style="font-variant:normal;font-weight:normal;font-size:10.90909958px;font-family:CMSY10;-inkscape-font-specification:CMSY10;writing-mode:lr-tb;fill:#000000;fill-opacity:1;fill-rule:nonzero;stroke:none"
       transform="matrix(1,0,0,-1,157.882,438.522)"><tspan
         id="tspan178"
         y="0"
         x="0">|</tspan></text>
<text
       id="text184"
       style="font-variant:normal;font-weight:normal;font-size:10.90909958px;font-family:CMBX10;-inkscape-font-specification:CMBX10;writing-mode:lr-tb;fill:#000000;fill-opacity:1;fill-rule:nonzero;stroke:none"
       transform="matrix(1,0,0,-1,165.094,438.522)"><tspan
         id="tspan182"
         y="0"
         x="0 9.8181896 19.302561 26.272385 39.934944 51.844406 55.328773 60.904415 66.070961 72.343697 76.525154 86.986984 96.805168 102.55536 112.03973">NASAMicro-gNeXT</tspan></text>
<text
       id="text188"
       style="font-variant:normal;font-weight:normal;font-size:10.90909958px;font-family:CMR10;-inkscape-font-specification:CMR10;writing-mode:lr-tb;fill:#000000;fill-opacity:1;fill-rule:nonzero;stroke:none"
       transform="matrix(1,0,0,-1,472.782,438.522)"><tspan
         id="tspan186"
         y="0"
         x="0 8.1818247 14.242921 19.697472 27.571659 33.026211 38.480759 43.93531 53.033497 62.120781 69.545509 73.818604 78.666611 82.969162 87.817162 93.572807">Aug.2024–Present</tspan></text>
<text
       id="text192"
       style="font-variant:normal;font-weight:normal;font-size:9.96259975px;font-family:CMTI10;-inkscape-font-specification:CMTI10;writing-mode:lr-tb;fill:#000000;fill-opacity:1;fill-rule:nonzero;stroke:none"
       transform="matrix(1,0,0,-1,46.8,424.972)"><tspan
         id="tspan190"
         y="0"
         x="0 7.4052005 13.006174 16.061705 20.644499 25.227295 29.428524 33.502232 36.557762 39.867336 48.271786 53.36367 59.975849 66.347931 70.930725 75.552376 80.644257 88.274612 93.366501 100.24268 107.76445 112.85633 115.91087 118.45731 123.54919 452.68262 459.70026 462.7558 467.33859 472.43048 477.52237 481.21548 486.30737 490.3811 495.47296 501.07394 507.68613 514.81537">UniversityofTexasatDallasRichardson,TX</tspan></text>
<text
       id="text196"
       style="font-variant:normal;font-weight:normal;font-size:5.9776001px;font-family:CMSY6;-inkscape-font-specification:CMSY6;writing-mode:lr-tb;fill:#000000;fill-opacity:1;fill-rule:nonzero;stroke:none"
       transform="matrix(1,0,0,-1,61.526,411.981)"><tspan
         id="tspan194"
         y="0"
         x="0">•</tspan></text>
<text
       id="text204"
       style="font-variant:normal;font-weight:normal;font-size:9.96259975px;font-family:CMR10;-inkscape-font-specification:CMR10;writing-mode:lr-tb;fill:#000000;fill-opacity:1;fill-rule:nonzero;stroke:none"
       transform="matrix(1,0,0,-1,70.8,410.679)"><tspan
         id="tspan198"
         y="0"
         x="0 6.7805457 12.315766 17.297066 20.064676 25.599897 30.027277 34.454655 38.357006 42.784386 51.637154 56.61845 65.481178 70.462479 75.98774 79.862198 84.843491 90.378716 95.360016 103.66185 108.64315 114.17837 121.43513 125.36438 130.62263 134.55188 138.42635 142.85371 154.4731 160.00832 163.93758 166.70518 172.2404 180.54921 187.32976 192.58801 196.46248 201.98773 206.96902 212.50426 218.59937 225.79436 233.54327 241.29218 247.37733 252.35864 257.89386 266.74661 272.28183 277.26315 280.30771 283.90323 290.82922 295.81052 299.71286 307.45779 315.06821 319.49561 325.03082 330.56604 334.99341 343.84619 351.17966 356.16095 361.69617 364.46378 369.4451 376.70184 380.57629 386.11151 393.72195 401.05542 408.24744 412.12189 420.42072 425.95593 430.38333 434.25778 438.68515 443.11255 450.31451 455.29581 460.83102 469.68378 475.21899 479.64639 484.07376 489.33401 494.86923">EngineeredanautonomoussystemusingPython,C++,andSoftwareDefnedRadios(SDR)todetectanddecode</tspan><tspan
         id="tspan200"
         y="11.955"
         x="0 5.5352206 13.007171 23.658186 27.53264 33.067863 37.495243 42.47654 46.378891 50.537281 59.390049 64.371346 69.90657 78.759331 86.092804 90.520187 94.449432 98.876816 104.41203 108.83941 116.04137 121.84559 126.27296 131.25427 135.68164 140.66295 149.52568 153.40013 157.30247 162.28378 167.819 171.74825 180.05008 182.81769 186.74695 190.67619 193.4438 198.42511 203.96033 207.88957 213.97473 216.74234 222.27756 226.70494 229.47255 235.00777 240.543 243.31061 248.84583 257.14468 262.12598 267.10727 272.08856 274.85617 279.83749 288.1463 297.26904 304.75095 312.49588 316.42514 323.34116 327.76855 333.30377 337.17822 340.49875 344.3732 349.35452 354.88974 362.64462 366.57385 369.34149 374.32278 379.858 384.83929 387.6069 394.8537 399.83499 405.37021 414.22299 419.20428 424.18558 429.1669 431.93451 436.9158 441.89709 450.19595 459.32867 466.8006">SAR(SearchandRescue)beacontransmissions,including121.65MHzswept-tonesignalsand406.025MHz</tspan><tspan
         id="tspan202"
         y="23.91"
         x="0 5.5352206 13.007171 20.340641 25.87586 32.520916 43.033451 46.9627 49.730309 54.711609 60.24683 65.228134 67.995743 71.924988 78.010147 83.545364 89.080589 92.982941 95.750549 101.28577 109.58462 113.45907 118.99429 126.74918 132.55339 137.53468 141.47391 145.34836 148.66888 151.43651 156.4178 161.95302 167.47829 170.2459 175.78111 184.08992 187.99226 192.41965 196.84703 201.54938 206.52869 210.95607 214.85841 223.44418 228.9794 234.50465 239.48596 243.42517 251.1701 256.1514 262.51352 269.98547 277.45743 282.99265 290.46457 293.23221 300.48895 308.23785 312.13025 314.89786 319.87915 328.74188 332.67114 338.20636 343.18765 347.61505 352.04242 356.46979 360.37216 365.35345 368.39801 372.27246">SARSATsignals,duringthepost-landingrecoveryphaseofNASA’sOrionspacecraft.</tspan></text>
<text
       id="text208"
       style="font-variant:normal;font-weight:normal;font-size:5.9776001px;font-family:CMSY6;-inkscape-font-specification:CMSY6;writing-mode:lr-tb;fill:#000000;fill-opacity:1;fill-rule:nonzero;stroke:none"
       transform="matrix(1,0,0,-1,61.526,374.119)"><tspan
         id="tspan206"
         y="0"
         x="0">•</tspan></text>
<text
       id="text216"
       style="font-variant:normal;font-weight:normal;font-size:9.96259975px;font-family:CMR10;-inkscape-font-specification:CMR10;writing-mode:lr-tb;fill:#000000;fill-opacity:1;fill-rule:nonzero;stroke:none"
       transform="matrix(1,0,0,-1,70.8,373.054)"><tspan
         id="tspan210"
         y="0"
         x="0 7.6104302 12.037809 17.017117 21.444496 24.212107 29.193407 35.00758 39.434959 48.287727 52.190075 56.617455 61.598755 64.366364 67.686897 71.561356 74.328964 82.630798 90.385689 94.314941 97.08255 102.06385 107.59907 112.58037 118.66553 124.20074 128.10309 133.36334 137.79073 142.21811 146.14735 150.0766 152.84422 158.37944 166.67828 170.60753 175.58884 178.63341 182.22891 189.15491 194.1362 198.03856 205.78348 210.76479 219.61755 223.5468 226.31441 231.84962 236.83093 239.59854 244.02591 247.34645 253.16063 258.14194 263.12323 267.02557 275.87833 280.30573 285.28702 293.58887 299.12408 304.6593 308.53375 312.96112 316.86349 324.12024 327.99469 332.42209 335.1897 340.17099 342.9386 349.02374 356.35721 361.33853 365.26776 370.80298 376.61716 381.04456 384.9469 388.84924 397.42505 404.2056 406.97321 413.05835 420.5303 424.43265 429.9679 435.50311 438.27072 443.80594 448.78723 455.9892 459.86365 468.16251 473.1438 478.67902 483.66031 486.42792 491.68619 496.11356">Developedreal-timesignalprocessingsoftwareonsingle-boardcomputers(e.g.,RaspberryPi,Arduino)toanalyze</tspan><tspan
         id="tspan212"
         y="11.956"
         x="0 3.9023504 8.8836508 14.418871 17.186481 25.485327 28.529898 32.432247 36.859627 42.117889 47.653107 52.080486 57.615707 62.043087 64.810699 69.238075 76.494835 81.476135 87.011353 95.86412 101.39935 105.82672 108.59433 111.36195 116.34125 120.76863 127.98853 132.41591 136.31825 141.85347 146.28085 149.04846 154.02977 160.12488 165.66011 170.6414 174.51585 182.81471 188.34993 193.88515 197.78749 201.71675 205.5912 209.52045 215.60561 219.53485 225.07008 229.22847 238.08124 243.06253 250.30933 254.73671 259.71802 265.25323 270.50949 274.38394 278.28632 286.87207 291.29944 296.54974 302.08496 306.51233 313.7691 318.7504 324.28561 333.1384 338.95255 343.37994 348.36124 352.7886 357.76993 366.62268 374.09464 378.522 387.10779 390.70529 398.3157 402.24496 408.33011 412.20456 420.50342 425.48471 429.38705 434.36838 439.90359 445.43881 454.29156 458.19391 462.63126 467.05865 471.76099 476.7403 481.16766 485.07004">radiofrequenciesanddelivercrucialdatabursts,suchascountrycodesandbeaconHexIDs,togroundrecovery</tspan><tspan
         id="tspan214"
         y="23.910999"
         x="0 3.8744552 8.3018341 13.283134 21.584969 28.831764 34.090023 36.857635 45.166443 53.46529 58.44659 62.348938 67.330238 72.865463 78.400681 81.168289 85.595673 90.576973 96.662125 102.19735 106.12659 110.55398 117.78384 120.55145 125.80772 129.68217 134.10954 138.0119 141.05647 146.03777 150.46515 158.21007 162.08453 169.90218 177.37413 180.97162 184.84608">teamsviaagraphicaluserinterface(GUI).</tspan></text>
<text
       id="text220"
       style="font-variant:normal;font-weight:normal;font-size:5.9776001px;font-family:CMSY6;-inkscape-font-specification:CMSY6;writing-mode:lr-tb;fill:#000000;fill-opacity:1;fill-rule:nonzero;stroke:none"
       transform="matrix(1,0,0,-1,61.526,336.494)"><tspan
         id="tspan218"
         y="0"
         x="0">•</tspan></text>
<text
       id="text226"
       style="font-variant:normal;font-weight:normal;font-size:9.96259975px;font-family:CMR10;-inkscape-font-specification:CMR10;writing-mode:lr-tb;fill:#000000;fill-opacity:1;fill-rule:nonzero;stroke:none"
       transform="matrix(1,0,0,-1,70.8,335.428)"><tspan
         id="tspan222"
         y="0"
         x="0 7.6104302 12.037809 16.465189 20.36754 24.794918 29.776218 33.705467 38.132847 46.985615 52.520836 56.423183 61.683437 67.218658 72.753876 77.181259 81.05571 83.823326 88.804626 97.657387 102.08477 107.06607 110.99532 114.86977 122.12653 127.3828 135.9586 140.93991 145.9212 157.55055 162.53185 168.06706 176.91983 179.68744 185.22267 189.65004 193.5524 197.97978 202.96107 206.89032 211.3177 220.17047 225.98465 230.96594 234.8683 238.74275 243.72404 249.25928 252.02689 254.79449 257.5621 261.15759 269.7334 274.99963 283.57544 288.55673 293.53806 305.15744 308.202 313.18329 320.41315 325.94836 333.42032 344.07135 347.9458 352.37317 357.35449 368.97385 372.87622 377.30359 381.73096 386.44327 391.42258 395.84998 399.75232 408.32812 412.75549 418.01376 423.54898 426.31659 431.85181 440.15366 444.58102 449.83728 457.03925 460.9137 466.44894 470.35129 475.33258 480.8678 485.84909">Decreasedproductioncostsby20%andincreasedportabilityby15%forSARteamrecoveryequipmentthrough</tspan><tspan
         id="tspan224"
         y="11.955"
         x="0 4.4273796 12.729214 17.156593 19.924204 24.351583 29.607851 36.809814 39.577423 44.833691 48.708149 53.135529 58.116829 62.019176 67.000481 70.874931 73.64254 78.62384 87.476608 92.457909 98.820023 104.35525 111.96568 122.62666 126.50111 130.92848 135.07692 140.61214 146.14735 151.12866 153.89627 158.87756 163.85887 166.62648 171.05386">efcientintegrationofSDRtechnologies</tspan></text>
<text
       id="text230"
       style="font-variant:normal;font-weight:normal;font-size:11.9552002px;font-family:CMCSC10;-inkscape-font-specification:CMCSC10;writing-mode:lr-tb;fill:#000000;fill-opacity:1;fill-rule:nonzero;stroke:none"
       transform="matrix(1,0,0,-1,36,299.787)"><tspan
         id="tspan228"
         y="0"
         x="0 8.8671722 15.803579 23.402304 28.476091 35.144703 42.211422 49.278137">Projects</tspan></text>
<g
       transform="translate(36,295.404)"
       id="g232"><path
         id="path234"
         style="fill:none;stroke:#000000;stroke-width:0.398;stroke-linecap:butt;stroke-linejoin:miter;stroke-miterlimit:10;stroke-dasharray:none;stroke-opacity:1"
         d="M 0,0 H 540" /></g><text
       id="text238"
       style="font-variant:normal;font-weight:normal;font-size:9.96259975px;font-family:CMBX10;-inkscape-font-specification:CMBX10;writing-mode:lr-tb;fill:#000000;fill-opacity:1;fill-rule:nonzero;stroke:none"
       transform="matrix(1,0,0,-1,46.8,279.899)"><tspan
         id="tspan236"
         y="0"
         x="0 5.7284951 11.45699 17.185486 26.729656 33.743328 39.162979 44.89048 50.618973 55.074249 64.459015 73.425362 78.994453 83.767532 89.813835 96.06636 101.31765 105.83669 110.29196 119.68669 127.96162 135.9317">2024ToyotaHackFestaCTF</tspan></text>
<text
       id="text242"
       style="font-variant:normal;font-weight:normal;font-size:10.90909958px;font-family:CMR10;-inkscape-font-specification:CMR10;writing-mode:lr-tb;fill:#000000;fill-opacity:1;fill-rule:nonzero;stroke:none"
       transform="matrix(1,0,0,-1,466.055,279.899)"><tspan
         id="tspan240"
         y="0"
         x="0 8.4850979 13.333102 17.575651 25.449839 30.90439 36.35894 41.813488 50.911678 59.998959 68.180786 73.32988 82.731339 88.18589 93.640442 99.094994">Oct.2024–Nov2024</tspan></text>
<text
       id="text246"
       style="font-variant:normal;font-weight:normal;font-size:5.9776001px;font-family:CMSY6;-inkscape-font-specification:CMSY6;writing-mode:lr-tb;fill:#000000;fill-opacity:1;fill-rule:nonzero;stroke:none"
       transform="matrix(1,0,0,-1,61.526,267.468)"><tspan
         id="tspan244"
         y="0"
         x="0">•</tspan></text>
<text
       id="text252"
       style="font-variant:normal;font-weight:normal;font-size:9.96259975px;font-family:CMR10;-inkscape-font-specification:CMR10;writing-mode:lr-tb;fill:#000000;fill-opacity:1;fill-rule:nonzero;stroke:none"
       transform="matrix(1,0,0,-1,70.8,266.166)"><tspan
         id="tspan248"
         y="0"
         x="0 7.7489104 13.284131 18.26543 21.033041 23.800652 29.335873 33.763252 42.616016 45.660587 50.641888 57.861786 62.843086 66.772331 73.974297 79.509521 82.27713 87.25843 91.685806 99.430733 106.62572 109.39333 113.26779 122.12055 130.42937 134.30382 138.7312 143.71249 152.01433 160.31616 165.29747 169.17192 173.5993 177.52855 183.61371 189.14893 193.57631 201.87814 206.85944 212.39467 216.32391 220.19836 224.10072 229.08202 232.95647 235.72408 241.25931 249.56812 253.44257 257.86993 262.85126 270.87411 277.79016 282.77145 286.67383 295.24963 300.23093 305.76614 314.62888 319.61017 325.14539 329.84573 334.82706 340.36227 344.78964 349.21701 358.06979 363.60501 367.50735 372.48865 378.0239 380.7915 385.21887 393.52072 396.84125 400.77048 405.7518 408.51941 413.77765 416.54526 422.08051 430.38931 434.31854 439.57681 442.34442 445.11203 447.87964 455.12643 457.89404 466.74683">Qualifedfor1stplacewith2teammates,demonstratingteamworkandadvancedproblem-solvingskillsina</tspan><tspan
         id="tspan250"
         y="11.955"
         x="0 4.4273796 9.408679 17.710514 23.524687 27.952066 31.826523 34.594131 38.468586 41.236198 46.215504 53.96043 58.38781 63.646069 69.460243 73.887627 77.78997 81.719223 86.146599 90.573982 96.1092 100.01155 102.77916 106.37466 114.96043 119.38781 124.64408 129.90234 132.66995 136.5723 141.5536 147.08882 155.39066 159.81804 165.07431 168.94876">competitivecybersecurityenvironment.</tspan></text>
<text
       id="text256"
       style="font-variant:normal;font-weight:normal;font-size:5.9776001px;font-family:CMSY6;-inkscape-font-specification:CMSY6;writing-mode:lr-tb;fill:#000000;fill-opacity:1;fill-rule:nonzero;stroke:none"
       transform="matrix(1,0,0,-1,61.526,241.561)"><tspan
         id="tspan254"
         y="0"
         x="0">•</tspan></text>
<text
       id="text262"
       style="font-variant:normal;font-weight:normal;font-size:9.96259975px;font-family:CMR10;-inkscape-font-specification:CMR10;writing-mode:lr-tb;fill:#000000;fill-opacity:1;fill-rule:nonzero;stroke:none"
       transform="matrix(1,0,0,-1,70.8,240.496)"><tspan
         id="tspan258"
         y="0"
         x="0 7.8176522 12.798952 15.566563 21.101784 25.529163 34.342079 39.8773 44.858601 50.383858 55.919079 59.848328 63.178825 68.160126 76.963074 81.390457 86.64872 92.462891 96.890266 100.79262 103.56023 107.98761 113.52283 117.95021 125.65529 132.85028 135.61789 139.49234 148.29529 152.16975 157.43001 162.4113 165.17891 172.38585 176.31511 181.85033 185.99875 194.80171 199.783 206.98994 214.32343 221.79536 230.92809 238.40004 244.44534 250.38902 257.86099 263.39621 269.76428 277.23624 283.28156 288.26285 293.79807 302.60101 309.79602 314.77731 320.31253 327.09308 329.86069 334.28806 339.26938 345.32465 352.51962 358.05484 360.82245 363.59006 371.28519 376.26648 381.8017 386.78299 389.5506 394.80887 399.23624 402.00388 407.53909 415.79807 421.33331 425.76068 429.35617 436.27222 441.25351 445.15585 453.69183 457.56628 461.46863 466.44992 474.75177 482.44687 487.98209 491.91135 494.67896 500.21417">Gainedhands-onexperiencewithtoolssuchasRAMN,PASTA,andCanPico,whileanalyzingnetworktrafcusing</tspan><tspan
         id="tspan260"
         y="11.956"
         x="0 10.23956 13.007171 16.909521 21.336901 25.26615 30.801371 35.782669 39.68502 48.260826 51.305397 56.286697 63.506592 67.943939 73.755119 78.182503 82.609879 86.484337 89.251945 94.231255 101.97618 107.5114 112.4927 116.64112 121.63039 126.05778 133.24977 138.23108 143.7663 148.74759 151.51521 156.77347 160.70271 163.47032 170.71712 174.61948 179.04684 181.81447 186.79576 190.67021 195.0976 203.96033 207.83478 216.13362 223.32861 230.80057 241.59006 247.12527 252.66051 259.91727 264.89856 270.43378 279.28656 284.26785 289.80307 293.67752 298.65881 306.96066 311.94196 315.81641 318.58401 323.56332 331.30826 335.24747 339.67484 344.10223 349.63745 353.53979 356.3074 359.90292 364.32431">WiresharkforefectivepacketanalysisrelatedtoCANbusandautomotivesecurity.</tspan></text>
<text
       id="text266"
       style="font-variant:normal;font-weight:normal;font-size:5.9776001px;font-family:CMSY6;-inkscape-font-specification:CMSY6;writing-mode:lr-tb;fill:#000000;fill-opacity:1;fill-rule:nonzero;stroke:none"
       transform="matrix(1,0,0,-1,61.526,215.891)"><tspan
         id="tspan264"
         y="0"
         x="0">•</tspan></text>
<text
       id="text272"
       style="font-variant:normal;font-weight:normal;font-size:9.96259975px;font-family:CMR10;-inkscape-font-specification:CMR10;writing-mode:lr-tb;fill:#000000;fill-opacity:1;fill-rule:nonzero;stroke:none"
       transform="matrix(1,0,0,-1,70.8,214.825)"><tspan
         id="tspan268"
         y="0"
         x="0 7.6104302 12.037809 17.017117 21.444496 24.212107 29.193407 35.00758 39.434959 48.287727 56.596535 61.023914 66.005211 74.307045 79.84227 83.744621 88.171997 93.707222 98.134598 103.66982 107.59907 110.36668 115.34599 123.09091 128.62613 134.16135 139.69658 144.12395 148.02631 151.95555 155.83 160.81131 166.34653 171.88174 174.64935 180.18459 188.48343 193.46472 199.83681 203.71126 209.24648 216.99141 224.74031 230.27554 237.19058 245.49242 250.75267 256.28787 260.71527 266.80042 271.78171 277.31696 286.17966 291.7149 295.58936 298.35696 301.12457 303.89218 308.31955 312.74695 321.5997 324.36731 329.3486 334.32993 337.09753 344.84244 349.82376 355.35898 360.34027 363.10788 368.36615 372.79352 377.22089 381.12326 388.38 391.42459 396.40588 403.62576 409.16098 414.1423 418.01675 426.31558 430.19006 434.09241 439.0737 444.60892 448.53818 456.84 459.6076 463.53687 467.46613 470.23373 475.21503">DevelopedacomprehensiveunderstandingoftheOSImodelandutilizedlogicanalyzersfordatatransmission</tspan><tspan
         id="tspan270"
         y="11.955"
         x="0 8.3018341 13.283134 18.818356 21.585966 25.460421 30.441721 34.34407 37.111683 42.6469 47.628201 53.713356 58.140736 63.675957 69.211182 74.192482 79.727699 84.155075 86.922691 92.457909 100.75675 104.686 109.94427 112.71188 115.47948 118.24709 125.50385 128.27147 137.12424 141.05348 145.48087 151.01608 156.5513 159.31891 164.85413 173.15297 178.13428 183.66949 192.53223 196.43457 200.86195 205.28934 209.71672 212.48433 217.74258 220.51019 226.04541 234.34427 239.87949 244.86078 248.73524 257.03409 262.56931 267.5506 271.69904 276.68829 281.11569 284.99014 288.91937">monitoring,enhancingskillsinsendingandreceivingdatapackets.</tspan></text>
<text
       id="text276"
       style="font-variant:normal;font-weight:normal;font-size:9.96259975px;font-family:CMBX10;-inkscape-font-specification:CMBX10;writing-mode:lr-tb;fill:#000000;fill-opacity:1;fill-rule:nonzero;stroke:none"
       transform="matrix(1,0,0,-1,46.8,183.211)"><tspan
         id="tspan274"
         y="0"
         x="0 7.5277405 13.574042 20.257952 25.509237 30.227524 34.6828 42.210541 47.938038 53.189323 59.235626 63.690903">ExpertEvents</tspan></text>
<text
       id="text280"
       style="font-variant:normal;font-weight:normal;font-size:9.96259975px;font-family:CMSY10;-inkscape-font-specification:CMSY10;writing-mode:lr-tb;fill:#000000;fill-opacity:1;fill-rule:nonzero;stroke:none"
       transform="matrix(1,0,0,-1,118.331,183.211)"><tspan
         id="tspan278"
         y="0"
         x="0">|</tspan></text>
<text
       id="text284"
       style="font-variant:normal;font-weight:normal;font-size:9.96259975px;font-family:CMTI10;-inkscape-font-specification:CMTI10;writing-mode:lr-tb;fill:#000000;fill-opacity:1;fill-rule:nonzero;stroke:none"
       transform="matrix(1,0,0,-1,124.419,183.211)"><tspan
         id="tspan282"
         y="0"
         x="0 6.5035853 9.0500259 14.396954 17.70653 21.016106 25.5989 29.800129 36.422268 42.925854 45.981384 49.664558 54.247353 58.322056 63.41394 67.487648 72.070442 78.692581 86.33091 90.914703 95.497498 101.09847 108.50367 112.34525 118.96739 126.67446 131.25826 135.83208 140.41487 142.96132 151.11072 158.23996 160.78641 165.87828 171.22522 179.88371 187.28891 190.34444 194.41815 197.47368 202.56557 208.16653 214.78868 221.29227 225.13383 232.84091 241.77437">Flutter,Firebase,OpenAI,GoogleCloudVision,FIGMA</tspan></text>
<text
       id="text288"
       style="font-variant:normal;font-weight:normal;font-size:10.90909958px;font-family:CMR10;-inkscape-font-specification:CMR10;writing-mode:lr-tb;fill:#000000;fill-opacity:1;fill-rule:nonzero;stroke:none"
       transform="matrix(1,0,0,-1,464.691,183.211)"><tspan
         id="tspan286"
         y="0"
         x="0 5.6061864 11.060737 17.121832 24.996021 30.450571 35.905121 41.359673 50.457859 59.545139 69.545509 74.694611 84.096069 89.550621 95.005173 100.45972">Jan.2024–May2024</tspan></text>
<text
       id="text292"
       style="font-variant:normal;font-weight:normal;font-size:5.9776001px;font-family:CMSY6;-inkscape-font-specification:CMSY6;writing-mode:lr-tb;fill:#000000;fill-opacity:1;fill-rule:nonzero;stroke:none"
       transform="matrix(1,0,0,-1,61.526,170.781)"><tspan
         id="tspan290"
         y="0"
         x="0">•</tspan></text>
<text
       id="text298"
       style="font-variant:normal;font-weight:normal;font-size:9.96259975px;font-family:CMR10;-inkscape-font-specification:CMR10;writing-mode:lr-tb;fill:#000000;fill-opacity:1;fill-rule:nonzero;stroke:none"
       transform="matrix(1,0,0,-1,70.8,169.478)"><tspan
         id="tspan294"
         y="0"
         x="0 7.6104302 12.037809 17.017117 21.444496 24.212107 29.193407 35.00758 39.434959 48.287727 56.596535 59.641106 65.176323 67.943939 70.711548 74.032082 77.961327 81.835785 86.817085 90.965515 96.22377 102.30893 106.23817 110.11263 115.64785 121.18307 125.61045 130.86671 134.74118 138.06171 141.10628 146.36653 150.79391 156.32913 160.25838 164.68576 173.53853 177.97588 182.95518 187.38255 192.63882 199.83083 205.36604 209.2684 214.24969 222.55153 227.53284 231.40729 234.1749 239.1562 248.01892 253.00023 258.53546 267.38821 274.58319 277.3508 281.22528 290.07803 293.98038 298.40778 303.38907 306.15668 309.4772 313.35165 316.11926 324.42111 332.17599 337.70126 342.68256 346.55701 349.32462 354.85983 359.28723 364.26852 368.14297 370.91058 375.89188 381.42709 388.68387 393.66516 399.20038 408.05316 412.48053 417.46182 420.22943 424.65683 430.19205 435.72726 440.70856 447.92847 450.69608 455.95233 459.82678 464.26413 469.24542 473.13782 478.11911 481.99359 484.7612 489.74249 495.27771">Developedafull-stack,student-focusedeventpromotionappwithreal-timenotifcationsandcalendarintegration,</tspan><tspan
         id="tspan296"
         y="11.955"
         x="0 2.7676103 8.3028307 12.73021 16.632561 21.05994 26.041241 29.97049 32.738098 38.273319 46.572166 50.999546 55.980846 64.282677 69.817902 75.353119 82.609879 87.037262 92.016563 96.443947 101.70021 108.89221 113.87351 117.74797 121.62242 126.0498 131.58502 137.12024 142.10155 147.63676 152.06415 159.81903 165.0753 173.65111 178.6324 183.61371 195.24306 198.28761 203.26892 210.48882 215.19116 220.17047 224.59785 231.82771 236.80901 241.79031 250.08916 254.0184 257.89285 263.42807 268.96329 273.39069 278.64694 282.52139">increasingcampuseventattendanceby35%forover500students</tspan></text>
<text
       id="text302"
       style="font-variant:normal;font-weight:normal;font-size:9.96259975px;font-family:CMBX10;-inkscape-font-specification:CMBX10;writing-mode:lr-tb;fill:#000000;fill-opacity:1;fill-rule:nonzero;stroke:none"
       transform="matrix(1,0,0,-1,46.8,137.865)"><tspan
         id="tspan300"
         y="0"
         x="0 8.8139124 16.783993 29.385685 35.75079 41.798088 46.889973 51.981857 57.233143 65.777069 74.369812 80.098305 86.782219 92.510712">UTDSoccerRobot</tspan></text>
<text
       id="text306"
       style="font-variant:normal;font-weight:normal;font-size:9.96259975px;font-family:CMSY10;-inkscape-font-specification:CMSY10;writing-mode:lr-tb;fill:#000000;fill-opacity:1;fill-rule:nonzero;stroke:none"
       transform="matrix(1,0,0,-1,147.083,137.865)"><tspan
         id="tspan304"
         y="0"
         x="0">|</tspan></text>
<text
       id="text310"
       style="font-variant:normal;font-weight:normal;font-size:9.96259975px;font-family:CMTI10;-inkscape-font-specification:CMTI10;writing-mode:lr-tb;fill:#000000;fill-opacity:1;fill-rule:nonzero;stroke:none"
       transform="matrix(1,0,0,-1,153.171,137.865)"><tspan
         id="tspan308"
         y="0"
         x="0 7.4052005 11.988993 17.080877 21.663673 24.719204 27.774733 31.84844 38.470581 45.108662 50.455589 55.038383 61.660522 69.182289 73.766083 78.348877 82.931671 87.514465 91.715698 98.327873 105.0855 112.35223 116.1938 121.79478 130.72824 138.13344 144.75558 152.16078 159.29002 168.22348 174.47203 181.09416 187.59775 191.43933 199.14639 208.07986 215.48506 222.09724 227.69821 235.33653 241.58508 244.64061 247.95018">Node.js,Vue,Docker,PRISMA,HTML,FIGMA,SQLite</tspan></text>
<text
       id="text314"
       style="font-variant:normal;font-weight:normal;font-size:10.90909958px;font-family:CMR10;-inkscape-font-specification:CMR10;writing-mode:lr-tb;fill:#000000;fill-opacity:1;fill-rule:nonzero;stroke:none"
       transform="matrix(1,0,0,-1,464.691,137.865)"><tspan
         id="tspan312"
         y="0"
         x="0 5.6061864 11.060737 17.121832 24.996021 30.450571 35.905121 41.359673 50.457859 59.545139 69.545509 74.694611 84.096069 89.550621 95.005173 100.45972">Jan.2024–May2024</tspan></text>
<text
       id="text318"
       style="font-variant:normal;font-weight:normal;font-size:5.9776001px;font-family:CMSY6;-inkscape-font-specification:CMSY6;writing-mode:lr-tb;fill:#000000;fill-opacity:1;fill-rule:nonzero;stroke:none"
       transform="matrix(1,0,0,-1,61.526,125.434)"><tspan
         id="tspan316"
         y="0"
         x="0">•</tspan></text>
<text
       id="text326"
       style="font-variant:normal;font-weight:normal;font-size:9.96259975px;font-family:CMR10;-inkscape-font-specification:CMR10;writing-mode:lr-tb;fill:#000000;fill-opacity:1;fill-rule:nonzero;stroke:none"
       transform="matrix(1,0,0,-1,70.8,124.132)"><tspan
         id="tspan320"
         y="0"
         x="0 5.5352206 11.349394 15.776773 20.758074 24.660423 30.195644 34.623024 39.604324 45.139545 49.566925 58.419689 66.718536 71.145912 76.127213 78.894829 81.662437 86.643738 92.457909 97.439209 101.34156 106.32286 110.19731 112.96493 117.94423 125.69912 130.1265 135.93768 140.91899 144.82133 152.01334 159.20833 161.97594 165.85039 174.70316 180.23837 185.21768 192.97258 196.84703 201.27441 206.25571 217.87509 226.17693 230.60431 238.63715 244.44136 248.86874 252.77109 260.02783 263.90231 272.20114 277.73636 282.16376 287.14307 291.57043 294.33804 299.31934 308.18207 316.48093 320.90829 326.44351 330.31796 334.19241 336.96005 342.49527 347.47656 350.79709 355.22449 360.7597 365.741 373.48593 380.40195 384.83929 393.69208 398.67337 404.20859 409.7438 412.51141 415.27902 419.70639 424.68771 428.56216 431.32977 436.31107 445.16385 449.59122 455.12643 460.10773 465.64294 468.41055 471.17819 476.71341 485.01224 487.77985 490.54745 495.52676">Spearheadedacollaborativeefortwithfveteammemberstodevelopacutting-edgewebapplicationenablinglive</tspan><tspan
         id="tspan322"
         y="11.955"
         x="0 3.9292495 7.8037047 11.706055 16.133434 21.114735 29.416569 32.184177 37.719398 46.018246 50.999546 57.371624 62.627892 68.163116 76.464951 81.446251 86.981468 90.302002 94.729385 99.710686 104.96695 108.84141 112.74376 117.72505 120.49267 123.26028 127.68765 136.54042 140.44278 145.42407 151.23825 156.21954 160.09399 167.34079 172.87602 175.64363 180.35594 185.6142 188.38181 193.90706 202.21587 206.14513 211.40538 215.83275 220.26013 224.68752 228.58986 234.67502 239.65633 243.53078 247.40523 251.30759 256.28888 260.71625 264.59073 267.35834 272.89355 281.19238 286.17371 288.94131 293.92261 298.9039 303.88519 314.96161 320.21988 322.98749 327.41489 334.3309 338.7583 342.66064 349.90744 354.88873 360.42395 369.28668 375.09088 380.35114 385.33246 389.26169 393.13614 395.90375 401.439 409.73782 414.16522 419.14651 427.44833 432.98355 438.51877 445.77554 450.20291 455.73813 460.71945 465.70074 470.68204 475.10941 483.41125 487.83862 493.09491">streamingofhuman-controlledrobotsplayingsoccer,attracting1,000+viewersandboostingcampusengagement</tspan><tspan
         id="tspan324"
         y="23.91"
         x="0 2.7676103 11.620377 15.494832 21.030052 28.784941 33.766239 40.546787 47.317368 50.914864 58.119816 63.645073 71.95388 77.489105 81.391457 86.372757 91.35405 95.256401 100.2377 108.53954 111.30715 118.55395 123.53524 127.96262 131.83708 134.60469 139.86295 142.63055 146.50502 149.27263 153.7 160.95676 166.21303 174.78883 179.77014 184.75143">inthe“EPICS”program’sactivitiesby20%</tspan></text>
<text
       id="text330"
       style="font-variant:normal;font-weight:normal;font-size:11.9552002px;font-family:CMCSC10;-inkscape-font-specification:CMCSC10;writing-mode:lr-tb;fill:#000000;fill-opacity:1;fill-rule:nonzero;stroke:none"
       transform="matrix(1,0,0,-1,36,76.536)"><tspan
         id="tspan328"
         y="0"
         x="0 9.3836365 16.450356 23.517075 27.129936 34.462059 38.074921 45.14164 48.754501 55.423111">Activities</tspan></text>
<g
       transform="translate(36,72.152)"
       id="g332"><path
         id="path334"
         style="fill:none;stroke:#000000;stroke-width:0.398;stroke-linecap:butt;stroke-linejoin:miter;stroke-miterlimit:10;stroke-dasharray:none;stroke-opacity:1"
         d="M 0,0 H 540" /></g><text
       id="text338"
       style="font-variant:normal;font-weight:normal;font-size:9.96259975px;font-family:CMBX10;-inkscape-font-specification:CMBX10;writing-mode:lr-tb;fill:#000000;fill-opacity:1;fill-rule:nonzero;stroke:none"
       transform="matrix(1,0,0,-1,46.8,59.213)"><tspan
         id="tspan336"
         y="0"
         x="0 8.2749357 11.45699 17.822096 24.187201">Clubs</tspan></text>
<text
       id="text344"
       style="font-variant:normal;font-weight:normal;font-size:9.96259975px;font-family:CMR10;-inkscape-font-specification:CMR10;writing-mode:lr-tb;fill:#000000;fill-opacity:1;fill-rule:nonzero;stroke:none"
       transform="matrix(1,0,0,-1,75.506,59.213)"><tspan
         id="tspan340"
         y="0"
         x="0 7.1910048 14.385994 19.367294 27.669128 33.20435 38.739571 42.614025 47.041405 54.271263 59.806484 64.233864 68.66124 74.196465 78.098816 80.866425 84.461929 93.037735 100.85538 104.75774 109.73904 115.27425 120.80948 126.89463 134.08961 139.34789 145.16205 149.58943 153.49179 157.42104 161.84842 166.27579 171.81102 175.71336 178.48097 182.07648 190.66225 198.27267 202.70006 205.74463 210.17201 215.70723 219.63647 227.38141 234.71487 239.14226 243.0715 248.88567 253.86697 259.40219 263.33145 271.07635 278.54831 284.08353 286.85114 290.72562 296.82071 304.01572 309.27399 315.07819 319.50555 323.40793 327.33716 331.77451 336.20187 341.73709 345.62949 348.39709 352.00256 360.57837 367.77338 370.54099 376.0762 381.61142 387.69656 392.67786 397.65918 402.64047 410.94928 417.3074 422.00977 426.99902 431.98032 435.8548 444.15363 451.62558 456.60687 460.75531 466.01358 471.69025 476.11765 480.04688 483.92133">:ComputerSecurityGroup,CybersecurityDefenseResponseUnit,CybersecurityClub,2024ToyotaHackFesta</tspan><tspan
         id="tspan342"
         y="11.955"
         x="-28.705999 -21.511011 -14.316021 -7.8124352 -1.7272792 5.4677105 10.727963 16.263184 20.690563 26.225784 31.207085 35.081539 40.61676 47.807766 55.002754 62.474705 69.541176 74.522476 79.503777 87.80262 91.400116 96.656387 100.53084 104.43319 112.73203 116.60649 124.9153 132.11029 137.36855 143.17276 147.60014 151.50249 155.43173 159.86908 164.29646 169.83168 173.73404 176.49168 180.09714 188.67294 192.54741 196.1449 204.99767 211.77821 215.68056 220.66187 225.64316 229.54552 233.9729 237.90215 241.83139">CTF,Codepath:CYB101IntrotoCybersecurity(InProgress)</tspan></text>
</g></svg>